<svg width="180" height="180" viewBox="0 0 64 64" xmlns="http://www.w3.org/2000/svg">
  <rect width="64" height="64" rx="14" fill="#111827"/>
  <path d="M32 4 55.5 17.5v29L32 60 8.5 46.5v-29L32 4Z" fill="#D97706"/>
  <path d="M32 8.8 51.3 19.9v24.2L32 55.2 12.7 44.1V19.9L32 8.8Z" fill="#111827"/>
  <path d="M18 38.5c5.2-2.4 8.9-2.4 14 0 5.2 2.4 8.9 2.4 14 0v5.1c-5.1 2.5-8.8 2.5-14 0-5.1-2.5-8.8-2.5-14 0v-5.1Z" fill="#F59E0B"/>
  <path d="M18 29.5c4.1-2 7.4-2.2 11.2-.7l2.8 1.1c5.2 2.2 8.9 2.2 14-.1v4.3c-5.1 2.4-8.8 2.4-14 0-5.1-2.4-8.8-2.4-14 0v-4.6Z" fill="#E5E7EB" opacity=".92"/>
  <path d="M20.8 25.4 32 15.6l11.2 9.8-3.1 3.3L34 23.3v17.4h-4V23.3l-6.1 5.4-3.1-3.3Z" fill="#F9FAFB"/>
  <path d="M32 12.7 45.6 24.6" fill="none" stroke="#D97706" stroke-linecap="round" stroke-width="3"/>
</svg>
